<svg xmlns="http://www.w3.org/2000/svg" width="30" height="30" viewBox="0 0 30 30"><path fill="#65CCEF" d="M0 0h30v30H0z"/><path fill="#fff" d="M22.5 11.1c-.6.2-1.1.4-1.8.5.6-.4 1.1-1 1.4-1.7-.6.4-1.3.6-2 .7-.6-.6-1.4-1-2.3-1-1.7 0-3.1 1.4-3.1 3.1 0 .2 0 .5.1.7-2.6-.1-4.8-1.4-6.4-3.2-.3.5-.4 1-.4 1.6 0 1.1.5 2 1.4 2.6-.5 0-1-.2-1.4-.4 0 1.5 1.1 2.7 2.5 3-.3.1-.5.1-.8.1-.2 0-.4 0-.6-.1.4 1.2 1.5 2.1 2.9 2.1-1 .9-2.3 1.4-3.8 1.4h-.7c1.4.9 3 1.4 4.7 1.4 5.7 0 8.8-4.7 8.8-8.8v-.4c.6-.5 1.1-1 1.5-1.6"/></svg>
