<svg xmlns="http://www.w3.org/2000/svg" viewBox="0 0 255.12 89.8"><defs><style>.cls-1{fill:#fff;}</style></defs><title>Asset 2</title><g id="Layer_2" data-name="Layer 2"><g id="Layer_1-2" data-name="Layer 1"><path class="cls-1" d="M215.9,43.08c-10,0-17.69,7.94-17.69,19,0,11.31,7.3,18.54,18.95,18.54,3.25,0,9.68-.58,14.63-4l-3.13-7a20.1,20.1,0,0,1-9.81,2.76l-.78,0h-.18c-.24,0-.48,0-.72-.08l-.16,0-.57-.1-.2,0c-.19,0-.38-.1-.56-.15l-.3-.09-.39-.15a3.25,3.25,0,0,1-.43-.18l-.13-.06a5.71,5.71,0,0,1-.65-.35h0a7.21,7.21,0,0,1-1.26-1v0c-.16-.15-.3-.31-.44-.47l-.16-.18a3.55,3.55,0,0,1-.23-.31,5.07,5.07,0,0,1-.36-.54h0a10.81,10.81,0,0,1-1.36-4.54h23.28v-2.8c0-10.5-7.34-18.2-17.31-18.2m-6,15.1c.42-4.78,2.88-7.23,6-7.23s5.55,2.45,6,7.23ZM84.05,17.36a5.07,5.07,0,0,0,3.24-1.26v1H91V0L87.29,1V5.51a4.15,4.15,0,0,0-2.36-.63c-3.59,0-5.76,2.92-5.76,6.5,0,3.17,1.72,6,4.88,6m1.63-9.91a3.28,3.28,0,0,1,1.61.45v6.23a3.31,3.31,0,0,1-1.73.52c-1.37,0-2.52-1.1-2.52-3.44s1.1-3.76,2.64-3.76M72.5,17.36A9,9,0,0,0,77.36,16l-1-2.31a6.7,6.7,0,0,1-3.26.91h-.32l-.24,0h0l-.19,0-.07,0-.19,0-.09,0-.14,0-.14-.07h0l-.22-.12h0a2.36,2.36,0,0,1-.42-.33h0a1.07,1.07,0,0,1-.14-.16l-.06-.06-.07-.1-.12-.18h0a3.74,3.74,0,0,1-.45-1.51h7.74v-.93a5.74,5.74,0,0,0-5.75-6.06c-3.32,0-5.88,2.64-5.88,6.31s2.42,6.17,6.3,6.17M72.08,7.5c1,0,1.84.82,2,2.41h-4c.14-1.59,1-2.41,2-2.41m42,12.92h3.55l6-15.26H119.9l-2.57,7.12-3-7.12h-3.82l5,11.36ZM61.66,9.37a3.89,3.89,0,0,1,2.68-1,7.16,7.16,0,0,1,.94,0V4.88a4.35,4.35,0,0,0-3.81,2.46V5.16H57.92V17.08h3.74ZM247.81,66a7.31,7.31,0,1,0,7.31,7.31A7.31,7.31,0,0,0,247.81,66m0-8.27a7.31,7.31,0,1,0-7.31-7.31,7.31,7.31,0,0,0,7.31,7.31M110.68,10.51c0-3.48-2-5.63-4.69-5.63a4.77,4.77,0,0,0-3.34,1.36V0L98.91,1V16.82a16,16,0,0,0,4.09.54c4.34,0,7.68-2.32,7.68-6.85m-8-2.24a3.56,3.56,0,0,1,1.89-.65c1,0,2.19.74,2.19,3.22,0,2.66-1.33,3.83-3,3.83a3,3,0,0,1-1.07-.19ZM3.83,11.19H6.19c3.1,0,5.43-1.94,5.43-5.23,0-2.85-1.75-5-5.43-5H0V17.08H3.83Zm0-7.43H5.77A2.09,2.09,0,0,1,7.91,6.1,2,2,0,0,1,5.77,8.39H3.83ZM95.49,43.92,87.77,65.33,78.9,43.92H67.4L82.55,78.06,77.82,89.8H88.51l18.14-45.88ZM118.2,54c0-1.69,1.69-2.74,4.5-2.74a21.84,21.84,0,0,1,8.28,2L134.14,46a28.16,28.16,0,0,0-12-2.88c-8.36,0-15.1,3.79-15.1,11.38,0,11.94,16.85,9.76,16.85,15,0,2-2,3-5.26,3a20.84,20.84,0,0,1-9.13-2.39l-3.58,7.24a29.55,29.55,0,0,0,13.69,3.3c8.14,0,15.16-4.21,15.16-11.94,0-11.8-16.57-9.84-16.57-14.61M18.6,31.27H0V79.75H11.51V62H18.6C27.94,62,35,56.22,35,46.31c0-8.57-5.27-15-16.36-15M17.34,53.61H11.51V39.71h5.83c4.14,0,6.45,2.87,6.45,7,0,4.43-2.59,6.88-6.45,6.88m36-10.53a30.19,30.19,0,0,0-15.8,4.28l3.09,6.4c2-.92,6.32-2.53,10-2.53,2.6,0,4.91.91,4.91,3.65v2.39C40,56.17,35.55,63,35.55,69.28c0,6.15,5.21,11.31,12.05,11.31a15.53,15.53,0,0,0,7.88-2.43v1.59H66.71V54.81c0-8.08-5.12-11.73-13.4-11.73m2.59,28.8a7.72,7.72,0,0,1-4.42,1.41c-2.81,0-4.7-1.62-4.7-4.22,0-2.95,2.32-5.84,9.12-4.71ZM32.35,17.08l2.22-7.85c.44,1.45,1.89,6.42,2.33,7.85h3.48L43.86,5.16H40.52l-2,7.83c-.4-1.45-1.61-6.38-2-7.83H32.84l-2.05,7.78c-.37-1.42-1.47-6.35-1.84-7.78H25.37l3.48,11.92Zm18.28.28A9,9,0,0,0,55.5,16l-1-2.31a6.71,6.71,0,0,1-3.27.91h-.32l-.24,0h-.05l-.19,0-.06,0-.19,0-.1,0-.13,0-.14-.07h-.05l-.21-.12h0a3.39,3.39,0,0,1-.42-.33h0l-.15-.16,0-.06-.08-.1-.12-.18h0a3.59,3.59,0,0,1-.45-1.51H56v-.93a5.74,5.74,0,0,0-5.76-6.06c-3.31,0-5.88,2.64-5.88,6.31s2.43,6.17,6.3,6.17M50.21,7.5c1,0,1.85.82,2,2.41h-4c.14-1.59,1-2.41,2-2.41M178.45,42.44v1.48h-6v7.66h6V79.75h11.16V51.58h7.72V43.92h-7.72V42c0-3.16,1.27-5.41,4.71-5.41a12,12,0,0,1,3.29.5v-8a19.6,19.6,0,0,0-5.33-.71c-9.06,0-13.83,5.55-13.83,14M18.66,17.36c3.67,0,6.31-2.29,6.31-6.24s-2.64-6.24-6.31-6.24-6.28,2.32-6.28,6.24,2.62,6.24,6.28,6.24m0-9.74c1.61,0,2.31,1.47,2.31,3.52s-.65,3.51-2.31,3.51-2.31-1.54-2.31-3.51.73-3.52,2.31-3.52m137.2,35.46a30.15,30.15,0,0,0-15.79,4.28l3.09,6.4c2-.92,6.31-2.53,10-2.53,2.6,0,4.92.91,4.92,3.65v2.39c-15.48-1.1-19.93,5.71-19.93,12,0,6.15,5.2,11.31,12,11.31A15.59,15.59,0,0,0,158,78.16v1.59h11.23V54.81c0-8.08-5.13-11.73-13.41-11.73M158,71.88a7.76,7.76,0,0,1-4.43,1.41c-2.8,0-4.7-1.62-4.7-4.22,0-2.95,2.32-5.84,9.13-4.71Z"/></g></g></svg>
