<?xml version="1.0" encoding="utf-8"?><svg xmlns="http://www.w3.org/2000/svg" xmlns:xlink="http://www.w3.org/1999/xlink"><symbol id="astroPay" viewBox="0 0 162 47" xmlns="http://www.w3.org/2000/svg"><style>.ast0{fill:#fff}</style><path class="ast0" d="M7.5 27.5l-3.1 9.4h-4l10.2-30h4.7l10.2 30h-4.1l-3.2-9.4H7.5zm9.9-3l-2.9-8.6c-.7-2-1.1-3.7-1.6-5.5h-.1c-.4 1.8-.9 3.6-1.5 5.4l-2.9 8.7h9zM29 32.9c1.2.8 3.2 1.6 5.2 1.6 2.9 0 4.2-1.4 4.2-3.2 0-1.9-1.1-2.9-4-4-3.9-1.4-5.7-3.5-5.7-6.1 0-3.5 2.8-6.3 7.4-6.3 2.2 0 4.1.6 5.3 1.3l-1 2.9c-.8-.5-2.4-1.2-4.4-1.2-2.3 0-3.6 1.3-3.6 2.9 0 1.8 1.3 2.6 4.1 3.7 3.7 1.4 5.7 3.3 5.7 6.5 0 3.8-2.9 6.5-8.1 6.5-2.4 0-4.5-.6-6.1-1.5l1-3.1zM51.9 9.2v6.2h5.6v3h-5.6V30c0 2.7.8 4.2 2.9 4.2 1 0 1.8-.1 2.3-.3l.2 2.9c-.8.3-2 .5-3.5.5-1.8 0-3.3-.6-4.2-1.6-1.1-1.2-1.5-3.1-1.5-5.6V18.3h-3.3v-3h3.3v-5.2l3.8-.9zm10 12.9c0-2.5 0-4.7-.2-6.7h3.4l.1 4.2h.2c1-2.9 3.3-4.7 6-4.7.4 0 .8 0 1.1.1v3.7c-.4-.1-.8-.1-1.3-.1-2.8 0-4.7 2.1-5.3 5-.1.5-.2 1.2-.2 1.8v11.5h-3.9V22.1zM95.6 26c0 8-5.5 11.4-10.7 11.4-5.8 0-10.3-4.3-10.3-11.1 0-7.2 4.7-11.4 10.7-11.4 6.1 0 10.3 4.5 10.3 11.1zm-17.1.2c0 4.7 2.7 8.3 6.5 8.3 3.7 0 6.5-3.5 6.5-8.4 0-3.7-1.8-8.3-6.5-8.3-4.5 0-6.5 4.3-6.5 8.4zm22.1-18.9c1.9-.3 4.3-.6 7.4-.6 3.8 0 6.6.9 8.4 2.5 1.6 1.4 2.6 3.6 2.6 6.3 0 2.7-.8 4.9-2.3 6.4-2 2.2-5.4 3.3-9.2 3.3-1.2 0-2.2 0-3.1-.3v12h-3.9V7.3zm3.9 14.4c.8.2 1.9.3 3.2.3 4.7 0 7.5-2.3 7.5-6.4 0-4-2.8-5.9-7.1-5.9-1.7 0-3 .1-3.7.3v11.7zM135 36.9l-.3-2.7h-.1c-1.2 1.7-3.5 3.2-6.6 3.2-4.4 0-6.6-3.1-6.6-6.2 0-5.2 4.6-8.1 13-8v-.4c0-1.8-.5-5-4.9-5-2 0-4.1.6-5.6 1.6l-.9-2.6c1.8-1.2 4.4-1.9 7.1-1.9 6.6 0 8.2 4.5 8.2 8.8v8.1c0 1.9.1 3.7.4 5.2H135zm-.6-11c-4.3-.1-9.1.7-9.1 4.9 0 2.5 1.7 3.7 3.7 3.7 2.8 0 4.6-1.8 5.2-3.6.1-.4.2-.8.2-1.2v-3.8zm11.2-10.5l4.7 12.7c.5 1.4 1 3.1 1.4 4.4h.1c.4-1.3.8-2.9 1.4-4.5l4.3-12.7h4.1l-5.9 15.4c-2.8 7.4-4.7 11.2-7.4 13.5-1.9 1.7-3.8 2.4-4.8 2.5l-1-3.3c1-.3 2.3-.9 3.4-1.9 1.1-.8 2.4-2.4 3.3-4.4.2-.4.3-.7.3-.9 0-.2-.1-.5-.3-1l-8-19.9h4.4z"/><path class="ast0" d="M18 11.6S26.4.4 42.7.2c0 0 11.4 0 21.2 10.6 0 0-12.4-8.8-21.4-7.7 0 0-12.2 1.2-17.3 8.6h-7.5"/></symbol><symbol id="bitcoin" viewBox="0 0 171 36" xmlns="http://www.w3.org/2000/svg"><style>.bst0{fill:#fff}</style><path class="bst0" d="M307.7 329.9l-1 3.9c1.1.3 4.5 1.4 5-.8.6-2.4-2.9-2.9-4-3.1zm-1.5 5.8l-1.1 4.3c1.3.3 5.4 1.6 6-.8.7-2.5-3.6-3.2-4.9-3.5z" transform="translate(-289.607 -317.505)"/><path class="bst0" d="M312 318.3c-9.5-2.4-19.2 3.4-21.5 12.9-2.4 9.5 3.4 19.2 12.9 21.5 9.5 2.4 19.2-3.4 21.5-12.9 2.5-9.5-3.3-19.2-12.9-21.5zm3.6 14.7c-.3 1.7-1.2 2.6-2.5 2.9 1.7.9 2.6 2.3 1.8 4.7-1.1 3-3.6 3.3-6.9 2.6l-.8 3.2-2-.5.8-3.2c-.5-.1-1-.3-1.6-.4l-.8 3.2-1.9-.5.8-3.2c-.5-.1-.9-.2-1.4-.4l-2.5-.6 1-2.2 1.4.4c.6.1.8-.2.9-.5l1.3-5.1c.1 0 .1 0 .2.1-.1 0-.1-.1-.2-.1l.9-3.7c0-.4-.1-.9-.9-1.1l-1.4-.4.5-2.1 2.7.7 1.2.3.8-3.2 1.9.5-.8 3.1c.5.1 1 .2 1.6.4l.8-3.1 2 .5-.8 3.2c2.4.8 4.2 2.1 3.9 4.5zm26.5-4.5c1.4 0 2.7.3 3.7.8 1.1.5 1.9 1.2 2.6 2.1.7.9 1.2 1.9 1.5 3.1.3 1.2.5 2.4.5 3.8 0 2.1-.4 4-1.1 5.9-.8 1.8-1.8 3.4-3.1 4.8s-2.9 2.4-4.7 3.2c-1.8.8-3.7 1.2-5.8 1.2h-1.4c-.7 0-1.4-.1-2.3-.2-.9-.1-1.8-.3-2.8-.5-1-.2-1.9-.6-2.8-1l7.8-32.7 7-1.1-2.8 11.6c.6-.3 1.2-.5 1.8-.6.5-.3 1.2-.4 1.9-.4zm-5.9 19.2c1 0 2-.3 3-.8.9-.5 1.7-1.2 2.4-2 .7-.9 1.2-1.8 1.6-2.9.4-1.1.6-2.2.6-3.4 0-1.4-.2-2.6-.7-3.4-.5-.8-1.4-1.2-2.7-1.2-.4 0-1 .1-1.6.2-.7.2-1.3.5-1.8.9l-3 12.3c.2 0 .3.1.5.1.1 0 .3.1.4.1h.5c.2 0 .5.1.8.1zm21.5 5H351l5.6-23.7h6.7l-5.6 23.7zm3.2-26.6c-.9 0-1.8-.3-2.5-.8-.8-.6-1.1-1.4-1.1-2.5 0-.6.1-1.2.4-1.8.3-.6.6-1 1-1.4.4-.4.9-.7 1.5-1 .6-.2 1.1-.4 1.8-.4.9 0 1.8.3 2.5.8.7.6 1.1 1.4 1.1 2.5 0 .6-.1 1.2-.4 1.8-.3.6-.6 1-1 1.4-.4.4-.9.7-1.5 1-.6.3-1.2.4-1.8.4zm8.3-3l7-1.1-1.7 7h7.5l-1.3 5.5h-7.4l-2 8.3c-.2.7-.3 1.3-.3 1.9 0 .6 0 1.1.2 1.6.2.4.5.8 1 1 .5.2 1.1.4 2 .4.7 0 1.4-.1 2.1-.2.7-.1 1.4-.3 2-.6l.5 5.1c-.9.3-1.9.6-2.9.9-1.1.2-2.3.4-3.7.4-2.1 0-3.7-.3-4.8-.9-1.1-.6-1.9-1.5-2.4-2.5-.5-1.1-.7-2.3-.6-3.7.1-1.4.3-2.8.6-4.4l4.2-18.7zm12.4 20.1c0-2 .3-4 1-5.8.7-1.8 1.6-3.4 2.8-4.7 1.2-1.3 2.7-2.4 4.5-3.2 1.7-.8 3.7-1.2 5.9-1.2 1.4 0 2.6.1 3.6.4 1.1.3 2 .6 2.9 1L400 335c-.6-.2-1.2-.5-1.9-.7-.6-.2-1.4-.3-2.4-.3-2.2 0-4 .8-5.3 2.3-1.3 1.5-2 3.6-2 6.2 0 1.5.3 2.8 1 3.7.7.9 1.9 1.4 3.6 1.4.9 0 1.7-.1 2.5-.3.8-.2 1.5-.4 2.2-.7l.5 5.4c-.8.3-1.8.6-2.8.9-1 .2-2.2.4-3.6.4-1.9 0-3.4-.3-4.7-.8-1.3-.5-2.4-1.3-3.2-2.2-.8-.9-1.4-2-1.8-3.2-.3-1.3-.5-2.6-.5-3.9zm29.6 10.1c-1.6 0-3-.2-4.1-.7-1.2-.5-2.1-1.2-2.9-2-.8-.9-1.3-1.9-1.7-3.1-.4-1.2-.6-2.5-.6-3.9 0-1.8.3-3.6.9-5.4.6-1.8 1.4-3.4 2.6-4.9 1.1-1.4 2.5-2.6 4.2-3.5 1.6-.9 3.5-1.4 5.7-1.4 1.6 0 2.9.2 4.1.7 1.2.5 2.2 1.2 2.9 2 .8.9 1.3 1.9 1.7 3.1.4 1.2.6 2.5.6 3.9 0 1.8-.3 3.6-.9 5.4-.6 1.8-1.4 3.4-2.5 4.9-1.1 1.4-2.5 2.6-4.2 3.5-1.7.9-3.6 1.4-5.8 1.4zm3.3-19.3c-1 0-1.9.3-2.6.9-.8.6-1.4 1.3-1.9 2.2-.5.9-.9 1.8-1.2 2.9-.3 1-.4 2-.4 2.9 0 1.5.2 2.7.7 3.5.5.8 1.4 1.3 2.6 1.3 1 0 1.9-.3 2.6-.9.7-.6 1.4-1.3 1.9-2.2.5-.9.9-1.8 1.2-2.9.3-1 .4-2 .4-2.9 0-1.5-.2-2.7-.7-3.5-.4-.9-1.3-1.3-2.6-1.3zm17.3 18.7h-6.7l5.6-23.7h6.7l-5.6 23.7zm3.2-26.6c-.9 0-1.8-.3-2.5-.8-.8-.6-1.1-1.4-1.1-2.5 0-.6.1-1.2.4-1.8.3-.6.6-1 1-1.4.4-.4.9-.7 1.5-1 .6-.2 1.1-.4 1.8-.4.9 0 1.8.3 2.5.8.7.6 1.1 1.4 1.1 2.5 0 .6-.1 1.2-.4 1.8-.3.6-.6 1-1 1.4-.4.4-.9.7-1.5 1-.6.3-1.2.4-1.8.4zm7.2 4c.5-.1 1.1-.3 1.7-.5.6-.2 1.3-.4 2.1-.5.8-.2 1.6-.3 2.6-.4.9-.1 2-.2 3.2-.2 3.5 0 5.9 1 7.3 3.1 1.3 2 1.6 4.8.7 8.4l-3.1 12.8H450l3-12.5c.2-.8.3-1.5.4-2.3.1-.7.1-1.4 0-1.9-.1-.6-.4-1-.8-1.4-.4-.3-1.1-.5-2-.5-.9 0-1.8.1-2.7.3l-4.4 18.3h-6.7l5.4-22.7z" transform="translate(-289.607 -317.505)"/></symbol><symbol id="boku" viewBox="0 0 155 59" xmlns="http://www.w3.org/2000/svg"><style>.cst0{fill:#fff}</style><path class="cst0" d="M6.4 16.2c-1.8 0-3.3.7-4.5 2C.7 19.5.1 21.1.1 22.9c0 1.8.7 3.4 1.9 4.7 1.3 1.3 2.8 1.9 4.5 1.9 1.8 0 3.3-.7 4.5-2 1.2-1.3 1.8-2.9 1.8-4.7 0-1.8-.7-3.4-1.9-4.7-1.2-1.3-2.7-1.9-4.5-1.9zm65.3-8.5c-4.3 0-8 1.5-11 4.4-3 2.9-4.5 6.5-4.5 10.8 0 4.2 1.5 7.8 4.4 10.7 3 3 6.5 4.4 10.7 4.4 4.2 0 7.8-1.5 10.8-4.4 3-3 4.4-6.5 4.4-10.8 0-4.2-1.5-7.7-4.4-10.7-2.8-2.9-6.3-4.4-10.4-4.4zM76 27.5c-1.2 1.3-2.7 2-4.5 2-1.8 0-3.3-.6-4.5-1.9-1.3-1.3-1.9-2.8-1.9-4.7 0-1.8.6-3.4 1.8-4.7 1.2-1.3 2.7-2 4.5-2 1.8 0 3.3.6 4.5 1.9 1.3 1.3 1.9 2.8 1.9 4.7 0 1.9-.6 3.4-1.8 4.7zM39 7.7c-2.5 0-4.8.5-6.8 1.5v-9h-8.6v22.7c0 4.2 1.5 7.8 4.4 10.7 3 3 6.5 4.4 10.7 4.4 4.2 0 7.8-1.5 10.8-4.4 3-3 4.4-6.5 4.4-10.8 0-4.2-1.5-7.7-4.4-10.7-2.9-2.9-6.4-4.4-10.5-4.4zm4.2 19.9c-1.2 1.3-2.7 1.9-4.5 1.9-1.8 0-3.3-.6-4.5-1.9-1.3-1.3-1.9-2.9-1.9-4.7 0-1.8.6-3.4 1.9-4.7 1.2-1.3 2.7-1.9 4.5-1.9 1.8 0 3.3.6 4.5 1.9 1.2 1.3 1.9 2.9 1.9 4.7 0 1.8-.6 3.4-1.9 4.7zM118 8.5h-9.6l-10.2 14V.2h-8.6v37.2h6.7l7.5-10 7.2 10h9.9l-12.3-16.5zm23.8-.1v14.5c0 1.9-.8 3.4-2.1 4.7-1.2 1.3-2.7 1.9-4.5 1.9-1.8 0-3.3-.6-4.5-1.9-1.3-1.3-2.1-2.9-2.1-4.7V8.5H120v14.4c0 4.2 1.5 7.8 4.5 10.7 3 3 6.5 4.4 10.7 4.4 4.2 0 7.8-1.5 10.8-4.4 3-3 4.4-6.5 4.4-10.8V8.3h-8.6zM28.3 51.6h-2.6v4.1h-2.3V42.9h5.1c3 0 4.9 1.7 4.9 4.3 0 2.9-2.3 4.4-5.1 4.4zm.1-6.6h-2.6v4.6h2.6c1.7 0 2.8-.9 2.8-2.3-.1-1.5-1.1-2.3-2.8-2.3zm12.9 10.8v-1.2c-.7.8-1.7 1.4-3.1 1.4-1.8 0-3.5-1-3.5-3 0-2.1 1.7-3.1 3.9-3.1 1.2 0 1.9.2 2.7.4V50c0-1.3-.8-2.1-2.4-2.1-1.1 0-1.9.2-2.8.6l-.6-1.8c1.1-.5 2.1-.8 3.7-.8 2.9 0 4.3 1.5 4.3 4.1v5.8h-2.2zm0-4.1c-.6-.2-1.4-.4-2.2-.4-1.4 0-2.2.6-2.2 1.6 0 .9.8 1.4 1.9 1.4 1.5 0 2.6-.8 2.6-2v-.6zm9.6 4.3c-.8 2-1.6 2.7-3.2 2.7-.9 0-1.6-.2-2.3-.6l.8-1.7c.4.2.8.4 1.3.4.6 0 1-.3 1.4-1.1l-4-9.7h2.4l2.8 7.2 2.5-7.2h2.3l-4 10zm16.8 0c-1.6 0-2.6-.8-3.3-1.7v1.5h-2.2V42.4h2.2v5.3c.7-1 1.7-1.8 3.3-1.8 2.3 0 4.5 1.8 4.5 5.1 0 3.2-2.2 5-4.5 5zm-.5-8.2c-1.5 0-2.8 1.2-2.8 3.1s1.3 3.1 2.8 3.1c1.5 0 2.8-1.2 2.8-3.1 0-1.9-1.3-3.1-2.8-3.1zm12 8.2c-.8 2-1.6 2.7-3.2 2.7-.9 0-1.6-.2-2.3-.6l.8-1.7c.4.2.8.4 1.3.4.6 0 1-.3 1.4-1.1l-4-9.7h2.4l2.8 7.2 2.5-7.2h2.3l-4 10zm17.9-3.4l-4.1-6v9.2h-2.2V42.9h2.4l3.9 6.1 3.9-6.1h2.4v12.9h-2.3v-9.2l-4 6zm14 3.4c-3 0-5.1-2.3-5.1-5 0-2.8 2.2-5.1 5.2-5.1s5.2 2.3 5.2 5.1c-.1 2.7-2.3 5-5.3 5zm0-8.2c-1.8 0-2.9 1.4-2.9 3.1 0 1.7 1.2 3.1 3 3.1s2.9-1.4 2.9-3.1c0-1.7-1.3-3.1-3-3.1zm13 8.2c-1.6 0-2.6-.8-3.3-1.7v1.5h-2.2V42.4h2.2v5.3c.7-1 1.7-1.8 3.3-1.8 2.3 0 4.5 1.8 4.5 5.1 0 3.2-2.2 5-4.5 5zm-.5-8.2c-1.5 0-2.8 1.2-2.8 3.1s1.3 3.1 2.8 3.1c1.5 0 2.8-1.2 2.8-3.1-.1-1.9-1.3-3.1-2.8-3.1zm7.3-3.2v-2.1h2.4v2.1h-2.4zm.1 11.2v-9.7h2.2v9.7H131zm5.3 0V42.4h2.2v13.4h-2.2zm9.6-1.6c1.1 0 1.9-.4 2.6-1.2l1.3 1.2c-.9 1.1-2.2 1.8-4 1.8-2.8 0-5-2-5-5.1 0-2.8 2-5.1 4.7-5.1 3.1 0 4.7 2.4 4.7 5.2v.6h-7.1c.2 1.7 1.3 2.6 2.8 2.6zm2.1-4c-.1-1.4-1-2.6-2.5-2.6-1.4 0-2.3 1-2.5 2.6h5zM150.8 45.1h-.5v-2.3h-.9v-.4h2.2v.4h-.9v2.3zm2.8-.7l-.9-1.3v2h-.5v-2.7h.5l.8 1.3.8-1.3h.5v2.7h-.5v-2l-.7 1.3z"/></symbol><symbol id="carta_si" viewBox="0 0 158 40" xmlns="http://www.w3.org/2000/svg"><style>.dst0{fill:#fff}</style><path class="dst0" d="M.4 22.3c.1-3.7 1.8-6.1 4.4-7.9 2.3-1.6 5-2.5 7.8-3 3.6-.6 7.3-.6 10.8.5 3.6 1.1 6.8 2.8 9 5.9.4.6.7 1.3 1.1 2 .2.4.3.8-.1 1.1-.4.3-.8 0-1.1-.3-1.5-1.6-3.4-2.8-5.5-3.6-3.3-1.3-6.7-1.5-10.1-.5-2.4.7-4.2 2.4-4.2 5.4v6.5c0 .5 0 1-.1 1.4-.2.9-.8 1.4-1.7 1.5-1.4.1-2.6-.3-3.9-.8-2.8-1.1-5-2.9-6-5.9-.2-.8-.3-1.8-.4-2.3z"/><path class="dst0" d="M21.3 25.5c0-1.5-.1-3 0-4.5.1-1.2 1-1.9 2.2-1.7 3.3.4 6.1 1.7 8.2 4.4 2.8 3.7 2 8.7-1.5 11.7-2.7 2.3-5.9 3.5-9.4 3.9-2 .2-4.1.4-6.1.2-5.2-.4-9.7-2.2-13-6.2-.6-.7-1-1.6-1.5-2.5 0-.1-.1-.2-.1-.2.1-.3.1-.8.3-.8.2-.1.7 0 .9.2.8.6 1.6 1.4 2.4 2 2.2 1.6 4.7 2.4 7.3 2.7 2 .2 3.9.1 5.8-.4 2.8-.7 4.3-2.7 4.3-5.6.1-1.1.1-2.2.2-3.2-.1 0 0 0 0 0zm42.5 8.7c.1.3.1.6.2.8.2.9.3 1.8.5 2.7.1.4.1.6-.4.8-6.2 2.5-14.8.7-18.6-5.6-1.8-2.9-2.3-6.1-1.9-9.4.3-3 1.4-5.7 3.5-8 2.3-2.5 5.2-3.9 8.5-4.4 2.8-.5 5.6-.3 8.3.7.6.2.7.5.6 1.1-.2.9-.3 1.8-.5 2.8-.1.7-.2.7-.8.4-3.7-1.8-7.4-1.8-10.9.4-3.2 1.9-4.5 5-4.5 8.6-.1 5.3 3 9.2 8.1 10.2 2.5.5 4.9.2 7.2-1 .2-.1.4-.2.5-.3 0 .2 0 .2.2.2zm16.6-8c-.2-.9-.2-1.7-.5-2.4-.4-1.1-1.5-1.4-2.5-1.4h-6.7c-.6 0-.8-.2-.7-.8.2-.8.3-1.7.4-2.5.1-.4.3-.5.6-.5 2.4 0 4.9 0 7.3.1 3 .1 5.2 2.2 5.6 5.2.1.9.2 1.8.2 2.7v11.8c0 .6-.2.8-.8.8-1-.1-1.9 0-3 0v-2.5l-.6.6c-2.1 2.1-4.5 2.9-7.4 2.2-3.1-.8-5-3.5-4.8-6.7.2-3.6 2.9-5.5 5.8-6.2 1.4-.3 2.9-.3 4.4-.4.9-.1 1.7 0 2.7 0zm-.2 3.5c-1.4 0-2.8-.1-4.2 0-1 .1-2.1.4-3.1.8-1.2.5-1.8 1.7-1.6 3 .2 1.4 1 2.2 2.3 2.5 1.7.3 3.2-.1 4.6-1.1 1.8-1.3 2.2-3.2 2-5.2zm46.4-3.4c-.1-.8-.1-1.4-.2-1.9-.3-1.3-1.1-2-2.7-2h-6.8c-.8 0-.8 0-.7-.8.1-.8.2-1.5.4-2.3.1-.4.2-.7.7-.7 2.4.1 4.7 0 7.1.1 3.4.2 5.7 2.4 5.8 5.8.2 4.7.1 9.5.1 14.2 0 .2-.3.5-.4.5h-3.4v-2.5c-.3.3-.5.4-.6.6-2.4 2.4-6 3.1-8.9 1.6-2-1.1-3.2-2.8-3.3-5.1-.2-2.6.7-4.6 2.9-6 1.5-.9 3.1-1.4 4.8-1.4 1.7-.1 3.4-.1 5.2-.1zm-.3 3.3c-1.2 0-2.5-.1-3.6 0-1.2.1-2.4.4-3.5.8-1.3.4-1.8 1.6-1.7 2.8.2 1.5.9 2.4 2.3 2.7 3.9.8 7.1-2.3 6.5-6.3zM147.8 16c-1.7-1-3.5-1.3-5.2-1.2-1 .1-2.1.3-3 .7-1.9.8-2.5 3.7-.7 5 1 .8 2 1.4 3.1 2 1.5.9 3.1 1.7 4.6 2.8 2.6 1.8 3.7 4.3 3.3 7.5-.5 3.4-2.6 5.4-5.8 6.3-3.3 1-6.6.6-9.8-.7-.2-.1-.4-.4-.4-.6.2-1.2.4-2.4.7-3.8.3.2.6.3.8.4 2.2 1.3 4.6 1.6 7 1.1 2.2-.4 3.5-2.3 3.4-4.4 0-.9-.5-1.6-1.2-2.1-1.6-1.1-3.2-2.1-4.8-3-1.5-.9-3.1-1.8-4.3-3.1-3.1-3.3-2-8.6 2.2-10.8 1.9-1 4-1.4 6.1-1.2 1.4.1 2.8.5 4.2.8.2 0 .5.4.5.5-.3 1.3-.5 2.5-.7 3.8zm-40.4 6.4v11.2c0 2 1 2.8 3 2.1.5-.2.9-.4 1.5-.6 0 .2.1.4.1.5v3c0 .2-.1.5-.3.6-1.8.6-3.6.8-5.4.1-1.6-.6-2.3-1.9-2.6-3.5-.1-.8-.2-1.7-.2-2.5V22.4h-2.7c-.8 0-.8 0-.7-.8.1-.8.3-1.6.4-2.5.1-.4.3-.5.7-.5h2.3v-3c0-.5.2-.7.6-.9 1.1-.3 2.1-.7 3.3-1.1v5h4.9c-.1.9-.2 1.8-.4 2.6-.2 1.2-.2 1.2-1.4 1.2h-3.1zM92 21.2c1.3-2 3.2-2.6 5.5-2.6.5 0 .6.2.5.6-.2.8-.4 1.6-.5 2.4-.1.6-.3.7-.9.7-.6 0-1.2.1-1.8.3-1.7.5-2.6 1.9-2.7 3.9 0 3.9 0 7.8-.1 11.7v.9h-3.5c-.1 0-.3-.2-.4-.3-.1-.1 0-.3 0-.5v-19c0-.9 0-.9.9-.9h2.4c.5 0 .6.2.6.6v2.2zm61.1-2.4h3.5c.2 0 .3.2.4.4.1.1 0 .3 0 .4v18.8c0 .7-.2.9-.9.8-.8-.1-1.6 0-2.4 0-.5 0-.7-.1-.7-.7v-19c.1-.2.1-.4.1-.7zM16.8 7.3c-1.1-.1-2-.5-2.8-1.1-1.7-1.4-1.7-3.7 0-5.1 1.6-1.1 4-1.1 5.5.1 1.9 1.5 1.7 4.3-.5 5.4-.6.4-1.4.5-2.2.7zm138.3 3.3c1.5 0 2.8 1.3 2.8 2.7 0 1.5-1.3 2.7-2.8 2.7-1.5 0-2.7-1.2-2.7-2.8-.1-1.4 1.1-2.6 2.7-2.6z"/></symbol><symbol viewBox="0 0 45.701 45.7" id="checked" xmlns="http://www.w3.org/2000/svg"><path d="M20.687 38.332a5.308 5.308 0 01-7.505 0L1.554 26.704A5.306 5.306 0 119.059 19.2l6.928 6.927a1.344 1.344 0 001.896 0L36.642 7.368a5.308 5.308 0 017.505 7.504l-23.46 23.46z"/></symbol><symbol viewBox="0 0 469.785 469.785" id="error" xmlns="http://www.w3.org/2000/svg"><path d="M285.368 234.691L459.36 60.697c13.895-13.88 13.895-36.395 0-50.275-13.881-13.895-36.38-13.895-50.275 0L235.091 184.416 61.082 10.421c-13.866-13.895-36.395-13.895-50.275 0-13.88 13.881-13.88 36.395 0 50.275l174.01 173.995L10.421 409.085c-13.895 13.895-13.895 36.395 0 50.275 6.94 6.955 16.043 10.425 25.145 10.425 9.088 0 18.19-3.47 25.132-10.425L235.09 284.967l173.995 173.995c6.955 6.94 16.043 10.425 25.145 10.425a35.46 35.46 0 0025.131-10.425c13.895-13.88 13.895-36.38 0-50.275L285.367 234.691z"/></symbol><symbol viewBox="0 0 30 30" id="fb" xmlns="http://www.w3.org/2000/svg"><path d="M0 0h30v30H0z"/><path d="M11.4 12.5H13V11c0-.7 0-1.7.5-2.3.5-.7 1.2-1.1 2.4-1.1 2 0 2.8.3 2.8.3l-.4 2.3s-.6-.2-1.2-.2-1.1.2-1.1.8v1.8h2.5l-.2 2.2H16v7.8h-2.9v-7.8h-1.6v-2.3z"/></symbol><symbol id="ideal" viewBox="0 0 72 63" xmlns="http://www.w3.org/2000/svg"><style>.hst0{fill:#fff}.hst1{fill:none}</style><path class="hst0" d="M8.3 35.2h11.4v19H8.3z"/><circle class="hst0" cx="14.1" cy="25.8" r="6.5"/><path class="hst0" d="M69.2 17.5c-1.5-3.9-3.8-7.2-6.8-9.8C57.3 3.1 50 .6 41.3.4H.3v62.2h41c9-.1 16-2.3 21.1-6.6 6.1-5.2 9.2-13.4 9.2-24.4 0-5.4-.8-10.1-2.4-14.1zm-28.6 41H4.5V4.6h36.1c7.9 0 14.6 2.2 19.1 6.2 5.2 4.6 7.8 11.6 7.8 20.7 0 18.1-8.8 27-26.9 27z"/><circle class="hst1" cx="14.1" cy="25.8" r="6.5"/><path class="hst1" d="M8.3 35.2h11.4v19H8.3z"/><path class="hst1" d="M59.7 10.8c-4.6-4.1-11.2-6.2-19.1-6.2H4.5v53.9h36.1c18.1 0 27-8.8 27-27-.1-9.2-2.7-16.1-7.9-20.7zm-40 43.6H8.3v-19h11.4v19zm-5.6-22c-3.6 0-6.5-2.9-6.5-6.5s2.9-6.5 6.5-6.5 6.5 2.9 6.5 6.5-2.9 6.5-6.5 6.5zm49.7-.2c-.1 18.6-12.9 22.2-24.9 22.2h.6-14.6V32.2h-2.8V20.8h2.8V9.6h14.5-.6c11.6 0 23.8 4.4 24.9 20.2h.3v2.4h-.2z"/><path class="hst0" d="M55.1 20.5h2.8v8.9H63C62 13.5 49.7 9.1 38.1 9.1H24.2v11.3h1.5c.9 0 1.6.1 2.1.2.7.2 1.3.6 1.8 1.1.5.5.8 1.1 1.1 1.9.2.7.4 1.6.4 2.6 0 .9-.1 1.7-.3 2.4-.3.8-.7 1.5-1.2 2-.4.4-1 .7-1.6.9-.5.2-1.2.2-2 .2h-1.6v22.2h13.9c12 0 24.9-3.6 24.9-22.2h-8V20.5zM41.7 31.7h-8.8V20.4h8.6v2.4h-5.8v1.8h5.4V27h-5.4v2.3h6v2.4zm9.3 0s-.8-2.1-.9-2.4h-3.9c-.1.3-.9 2.4-.9 2.4h-2.9l4.4-11.4h2.7L54 31.7h-3zm-26.8-2.4v-6.5 6.5z"/><path class="hst0" d="M49.2 26.9c-.2-.5-.7-2-1.1-2.8-.3.9-.9 2.3-1 2.8h2.1zm-23.7 2.4c.6 0 1 0 1.2-.1.3-.1.6-.2.8-.4.2-.2.4-.5.5-.9.1-.5.2-1.1.2-1.9 0-.8-.1-1.4-.2-1.8-.1-.4-.3-.7-.5-.9-.2-.2-.5-.4-.9-.4-.2 0-.7-.1-1.7-.1h-.7v6.5h1.3z"/></symbol><symbol viewBox="0 0 128 128" id="loading" xmlns="http://www.w3.org/2000/svg"><g><circle cx="16" cy="64" r="16"/><circle cx="16" cy="64" r="16" fill-opacity=".67" transform="rotate(45 64 64)"/><circle cx="16" cy="64" r="16" fill-opacity=".42" transform="rotate(90 64 64)"/><circle cx="16" cy="64" r="16" fill-opacity=".2" transform="rotate(135 64 64)"/><circle cx="16" cy="64" r="16" fill-opacity=".12" transform="rotate(180 64 64)"/><circle cx="16" cy="64" r="16" fill-opacity=".12" transform="rotate(225 64 64)"/><circle cx="16" cy="64" r="16" fill-opacity=".12" transform="rotate(270 64 64)"/><circle cx="16" cy="64" r="16" fill-opacity=".12" transform="rotate(315 64 64)"/><animateTransform attributeName="transform" type="rotate" values="0 64 64;315 64 64;270 64 64;225 64 64;180 64 64;135 64 64;90 64 64;45 64 64" calcMode="discrete" dur="720ms" repeatCount="indefinite"/></g></symbol><symbol id="maestro" viewBox="0 0 61 47" xmlns="http://www.w3.org/2000/svg"><style>.jst0{fill:#fff}</style><path class="jst0" d="M58.9 30.2v-.6h.2v-.1h-.6v.1h.2v.6h.2zm1.2 0v-.7h-.2l-.2.5-.2-.5h-.2v.7h.1v-.5l.2.5h.1l.2-.5v.5h.2zM18.6 46.7v-3.1c0-1.2-.7-2-1.9-2-.6 0-1.3.2-1.7.9-.3-.5-.9-.9-1.6-.9-.5 0-1 .2-1.4.7v-.6h-1.1v4.9H12V44c0-.9.5-1.3 1.2-1.3s1.1.5 1.1 1.3v2.8h1.1V44c0-.9.5-1.3 1.2-1.3s1.1.5 1.1 1.3v2.8h.9zm6-2.5v-2.5h-1.1v.6c-.3-.4-.9-.7-1.6-.7-1.4 0-2.5 1.1-2.5 2.6s1.1 2.6 2.5 2.6c.7 0 1.2-.3 1.6-.7v.6h1.1v-2.5zm-4 0c0-.9.6-1.6 1.5-1.6s1.5.7 1.5 1.6c0 .9-.6 1.6-1.5 1.6s-1.5-.7-1.5-1.6zm27-2.6c.4 0 .7.1 1.1.2.3.1.6.3.8.5.2.2.4.5.6.8.1.3.2.7.2 1 0 .4-.1.7-.2 1-.1.3-.3.6-.6.8-.2.2-.5.4-.8.5-.3.1-.7.2-1.1.2-.4 0-.7-.1-1.1-.2-.3-.1-.6-.3-.8-.5-.2-.2-.4-.5-.6-.8-.1-.3-.2-.7-.2-1 0-.4.1-.7.2-1 .1-.3.3-.6.6-.8.2-.2.5-.4.8-.5.4-.1.8-.2 1.1-.2zm0 1c-.2 0-.4 0-.6.1-.2.1-.4.2-.5.3-.1.1-.2.3-.3.5-.1.2-.1.4-.1.6s0 .4.1.6c.1.2.2.4.3.5.1.1.3.2.5.3.2.1.4.1.6.1s.4 0 .6-.1c.2-.1.4-.2.5-.3.1-.1.2-.3.3-.5.1-.2.1-.4.1-.6s0-.4-.1-.6c-.1-.2-.2-.4-.3-.5-.1-.1-.3-.2-.5-.3-.1 0-.3-.1-.6-.1zm-17.1 1.6c0-1.5-1-2.6-2.3-2.6-1.4 0-2.5 1.1-2.5 2.6 0 1.6 1.1 2.6 2.5 2.6.7 0 1.4-.2 2-.7l-.5-.8c-.4.3-.9.5-1.4.5-.7 0-1.3-.3-1.5-1.2h3.7v-.4zm-3.7-.4c.1-.7.5-1.2 1.3-1.2.7 0 1.1.4 1.3 1.2h-2.6zM35 43c-.3-.2-.9-.4-1.5-.4s-.9.2-.9.6c0 .3.4.4.8.5l.5.1c1.1.2 1.7.6 1.7 1.5s-.8 1.6-2.3 1.6c-.8 0-1.6-.2-2.1-.6l.5-.8c.4.3.9.5 1.6.5.7 0 1.1-.2 1.1-.6 0-.3-.3-.4-.9-.5l-.5-.1c-1.1-.2-1.7-.7-1.7-1.5 0-1 .8-1.6 2.1-1.6.8 0 1.5.2 2 .5l-.4.8zm5.2-.3h-1.8V45c0 .5.2.8.7.8.3 0 .6-.1 1-.3l.3.9c-.3.2-.9.4-1.3.4-1.3 0-1.7-.7-1.7-1.8v-2.3h-1v-1h1v-1.5h1.1v1.5h1.8v1zm3.7-1.1c.2 0 .5 0 .8.1l-.3 1c-.2-.1-.5-.1-.7-.1-.7 0-1.1.5-1.1 1.3v2.8h-1.1v-4.9h1.1v.6c.3-.5.7-.8 1.3-.8zm7.5 4.4h.2c.1 0 .1.1.2.1 0 0 .1.1.1.2v.4c0 .1-.1.1-.1.2 0 0-.1.1-.2.1h-.4c-.1 0-.1-.1-.2-.1 0 0-.1-.1-.1-.2v-.4c0-.1.1-.1.1-.2 0 0 .1-.1.2-.1h.2zm0 .9h.1s.1 0 .1-.1l.1-.1v-.2s0-.1-.1-.1l-.1-.1h-.3s-.1 0-.1.1l-.1.1v.2s0 .1.1.1l.1.1c0-.1.1 0 .2 0zm0-.7h.1v.2h-.1l.1.2h-.1l-.1-.2v.2h-.1v-.5h.2zm-.1.1v.1h.1-.1zM28.8 33.8c.1.1.3.2.5.4-3 2-6.5 3.1-10.3 3.1C8.7 37.3.3 29 .3 18.7S8.7 0 19 0c3.8 0 7.4 1.1 10.3 3.1-.2.1-.3.2-.5.4-4.4 3.8-6.9 9.3-6.9 15.2 0 5.8 2.6 11.3 6.9 15.1zM42 0c-3.8 0-7.4 1.1-10.3 3.1.2.1.3.2.5.4 4.4 3.8 6.9 9.3 6.9 15.2 0 5.8-2.5 11.3-6.9 15.2-.1.1-.3.2-.5.4 3 2 6.5 3.1 10.3 3.1 10.3 0 18.6-8.3 18.6-18.6C60.7 8.4 52.3 0 42 0zM30.5 4c-.2.2-.5.4-.7.6-3.9 3.4-6.4 8.4-6.4 14.1 0 5.6 2.5 10.6 6.4 14.1.2.2.5.4.7.6.2-.2.5-.4.7-.6 3.9-3.4 6.4-8.4 6.4-14.1 0-5.6-2.5-10.6-6.4-14.1-.2-.2-.5-.4-.7-.6"/></symbol><symbol id="mastercard" viewBox="0 0 59 46" xmlns="http://www.w3.org/2000/svg"><style>.kst0{fill:#fff}</style><path class="kst0" d="M10.8 45.6v-3c0-1.1-.7-1.9-1.9-1.9-.6 0-1.2.2-1.7.9-.3-.5-.9-.9-1.6-.9-.5 0-1 .2-1.4.7v-.6h-1v4.8h1.1v-2.7c0-.8.5-1.3 1.2-1.3s1 .5 1 1.3v2.7h1.1v-2.7c0-.8.5-1.3 1.2-1.3s1.1.5 1.1 1.3v2.7h.9zm15.7-4.8h-1.7v-1.5h-1.1v1.5h-1v1h1V44c0 1.1.4 1.8 1.7 1.8.5 0 1-.1 1.3-.4l-.3-.9c-.3.2-.7.3-.9.3-.5 0-.7-.3-.7-.8v-2.2h1.7v-1zm8.9-.2c-.6 0-1 .3-1.3.7v-.6h-1v4.8h1v-2.7c0-.8.3-1.2 1-1.2.2 0 .4 0 .7.1l.3-1c-.2 0-.5-.1-.7-.1zm-13.5.5c-.5-.3-1.2-.5-2-.5-1.2 0-2 .6-2 1.5 0 .8.6 1.3 1.7 1.4l.5.1c.6.1.8.2.8.5 0 .4-.4.6-1.1.6-.7 0-1.2-.2-1.6-.5l-.5.8c.6.4 1.3.6 2.1.6 1.4 0 2.2-.7 2.2-1.6 0-.8-.6-1.3-1.7-1.4l-.5-.1c-.5-.1-.8-.2-.8-.5 0-.4.3-.6.9-.6.6 0 1.2.2 1.5.4l.5-.7zm28.1-.5c-.6 0-1 .3-1.3.7v-.6h-1v4.8h1v-2.7c0-.8.3-1.2 1-1.2.2 0 .4 0 .7.1l.3-1c-.2 0-.5-.1-.7-.1zm-13.5 2.6c0 1.5 1 2.5 2.6 2.5.7 0 1.2-.2 1.7-.6l-.5-.8c-.4.3-.8.4-1.3.4-.8 0-1.5-.6-1.5-1.5s.6-1.5 1.5-1.5c.5 0 .9.2 1.3.4l.5-.8c-.5-.4-1-.6-1.7-.6-1.6-.1-2.6 1-2.6 2.5zm9.8 0v-2.4h-1v.6c-.3-.4-.8-.7-1.5-.7-1.4 0-2.4 1.1-2.4 2.5 0 1.5 1.1 2.5 2.4 2.5.7 0 1.2-.3 1.5-.7v.6h1v-2.4zm-3.9 0c0-.8.6-1.5 1.5-1.5s1.5.7 1.5 1.5c0 .9-.6 1.5-1.5 1.5s-1.5-.7-1.5-1.5zm-12.6-2.6c-1.4 0-2.4 1-2.4 2.5s1 2.5 2.5 2.5c.7 0 1.4-.2 2-.7l-.5-.8c-.4.3-.9.5-1.4.5-.7 0-1.3-.3-1.4-1.2H32V43c0-1.3-.9-2.4-2.2-2.4zm-.1 1c.7 0 1.1.4 1.2 1.2h-2.5c.2-.7.6-1.2 1.3-1.2zM56 43.2v-4.3h-1v2.5c-.3-.4-.8-.7-1.5-.7-1.4 0-2.4 1.1-2.4 2.5 0 1.5 1.1 2.5 2.4 2.5.7 0 1.2-.3 1.5-.7v.6h1v-2.4zm-3.9 0c0-.8.6-1.5 1.5-1.5s1.5.7 1.5 1.5c0 .9-.6 1.5-1.5 1.5s-1.5-.7-1.5-1.5zm-35.4 0v-2.4h-1v.6c-.3-.4-.8-.7-1.5-.7-1.4 0-2.4 1.1-2.4 2.5 0 1.5 1.1 2.5 2.4 2.5.7 0 1.2-.3 1.5-.7v.6h1v-2.4zm-3.9 0c0-.8.6-1.5 1.5-1.5s1.5.7 1.5 1.5c0 .9-.6 1.5-1.5 1.5s-1.5-.7-1.5-1.5zm45 1.7h.2c.1 0 .1.1.2.1 0 0 .1.1.1.2v.4c0 .1-.1.1-.1.2 0 0-.1.1-.2.1h-.4c-.1 0-.1-.1-.2-.1 0 0-.1-.1-.1-.2v-.4c0-.1.1-.1.1-.2 0 0 .1-.1.2-.1h.2zm0 .8h.1s.1 0 .1-.1l.1-.1v-.2s0-.1-.1-.1l-.1-.1h-.2s-.1 0-.1.1l-.1.1v.2s0 .1.1.1l.1.1h.1zm0-.6h.1v.2h-.1l.1.2h-.1l-.1-.2v.2h-.1v-.4h.2zm-.1.1v.1h.1-.1zm-.6-15.6V29h.2v-.1h-.6v.1h.3v.6h.1zm1.2 0v-.7h-.2l-.2.5-.2-.5h-.2v.7h.1V29l.2.5h.2l.2-.5v.5h.1zm-30.4 3.5c.1.1.3.2.4.4-2.9 1.9-6.3 3-10 3C8.3 36.5.2 28.4.2 18.4S8.3.2 18.3.2c3.7 0 7.2 1.1 10 3-.1.1-.3.2-.4.4-4.3 3.7-6.7 9.1-6.7 14.8 0 5.6 2.4 10.9 6.7 14.7zM40.7.2c-3.7 0-7.2 1.1-10 3 .1.1.3.2.4.4 4.3 3.7 6.7 9.1 6.7 14.8 0 5.7-2.5 11-6.7 14.8-.1.1-.3.2-.4.4 2.9 1.9 6.3 3 10 3 10 0 18.1-8.1 18.1-18.1C58.9 8.3 50.7.2 40.7.2zM29.5 4c-.2.2-.5.4-.7.6-3.8 3.3-6.2 8.2-6.2 13.7S25 28.7 28.8 32c.2.2.5.4.7.6.2-.2.5-.4.7-.6 3.8-3.3 6.2-8.2 6.2-13.7S34 7.9 30.2 4.6c-.2-.2-.5-.4-.7-.6"/></symbol><symbol id="oxxo" viewBox="0 0 120 55" xmlns="http://www.w3.org/2000/svg"><style>.lst0{fill:#fff}</style><path class="lst0" d="M.4 51.3c0 2 1.7 3.7 3.7 3.7h111.8c2 0 3.7-1.7 3.7-3.7v-1.7H.4v1.7zM115.9 0H4.1C2 0 .4 1.7.4 3.7v1.7h119.3V3.7c-.1-2-1.7-3.7-3.8-3.7zm-14.5 16.9c5.5 0 9.9 4.4 9.9 9.9s-4.4 9.9-9.9 9.9-9.9-4.4-9.9-9.9 4.5-9.9 9.9-9.9z"/><path class="lst0" d="M101.4 36.7c5.5 0 9.9-4.4 9.9-9.9s-4.4-9.9-9.9-9.9-9.9 4.4-9.9 9.9c0 5.4 4.5 9.9 9.9 9.9zM19.8 16.9c-5.5 0-9.9 4.4-9.9 9.9s4.4 9.9 9.9 9.9 9.9-4.4 9.9-9.9-4.4-9.9-9.9-9.9z"/><path class="lst0" d="M80.9 21.1L75 27.9l9.3 11.2c2.2 3.4-2 6.8-4.7 3.7L71 32.5l-8.4 9.8c-2.7 3.1-6.9-.4-4.6-3.8l9.1-10.6-6-7.1L65 16l6.1 7.3 5.2-6.1c2.6-3 5.2-7 8.6-9H.4v38.7h19.8c9.2 0 13.3-5.5 19.4-12.9l5.7-7-9.6-11c-2.3-3.4 1.9-6.9 4.6-3.8l8.9 10.1 8.2-10c2.6-3.2 6.9.2 4.7 3.7l-8.9 10.8 6.2 7-3.9 4.6-6.1-6.9-5.1 6.2c-2.5 3.1-5 6.9-8.4 9.1h83.8V8.2h-19c-9.2-.2-13.5 5.6-19.8 12.9zm-45.4 5.7c0 8.6-7 15.6-15.6 15.6s-15.6-7-15.6-15.6 7-15.6 15.6-15.6c8.5-.1 15.6 7 15.6 15.6zm81.6 0c0 8.6-7 15.6-15.6 15.6s-15.6-7-15.6-15.6 7-15.6 15.6-15.6c8.6-.1 15.6 7 15.6 15.6z"/></symbol><symbol id="paysafecard" viewBox="0 0 188 48" xmlns="http://www.w3.org/2000/svg"><style>.mst0{fill:#fff}</style><path class="mst0" d="M24.7 13.4c0-1.4.3-2.5 1-3.3.3-.3.7-.6 1.2-.8.5-.2 1-.3 1.5-.3h5.8c2.6 0 3.9 1.4 3.9 4.2v8.6c0 1-.4 1.9-1.2 2.6-.7.8-1.6 1.1-2.7 1.2h-5.5v6.2h-4.1V13.4zm9.3.8c0-.6-.3-1-.9-1h-3.2c-.8 0-1.1.5-1.2 1.2v5.7c0 .8.4 1.2 1.3 1.2h2.9c.3 0 .6-.1.8-.3.2-.2.3-.4.3-.7v-6.1zm16.8-.1c0-.6-.3-.9-1.1-.9h-8.2V9h9.3c2.7 0 4.1 1.3 4.1 3.9v8.8c0 1.1-.4 2-1 2.8-.7.8-1.6 1.1-2.7 1.1h-5.6c-2.7 0-4.1-1.3-4.1-3.7v-3.4c0-2.6 1.3-3.9 4-3.9h5.4v-.5zm-5.3 6.4c0 .2.1.4.3.6.2.2.4.3.7.3h3.1c.7 0 1.1-.3 1.1-.8v-1.2c0-.6-.4-1-1.1-1h-3.1c-.4 0-.7.1-.8.2-.1.2-.2.5-.2.9v1zm20.8 7.1c.3 0 .6-.1.8-.3.2-.2.3-.4.3-.7v-1h-5.2c-.7 0-1.2-.1-1.6-.3-.4-.2-.9-.4-1.3-.9-.4-.4-.7-.9-.9-1.4-.2-.4-.3-1-.3-1.7V9h4.1v11c0 .9.4 1.3 1.1 1.3h2.9c.3 0 .6-.1.9-.3.2-.2.4-.4.4-.7V9h4v18.3c0 1.4-.4 2.4-1 3.3-.7.8-1.6 1.2-2.8 1.3h-9.5v-4.2h8.1zm8.4-6.2H82c.7 0 1-.3 1-.8v-.4c0-.1 0-.2-.1-.4-.2-.3-.4-.5-.6-.5h-3.6c-1.1 0-2-.4-2.8-1.1-.8-.7-1.2-1.5-1.2-2.4v-3.1c0-2.4 1.4-3.7 4-3.7h8.4v4.2H80c-.8 0-1.3.3-1.3.8v.4c0 .5.4.8 1.3.8h3.6c1 0 1.8.4 2.5 1.1.7.7 1 1.6 1.1 2.6V22c0 .9-.4 1.7-1.2 2.6-.4.4-.8.7-1.1.9-.4.1-.9.2-1.6.2h-8.5v-4.3zm24.7-7.3c0-.6-.3-.9-1.1-.9h-8.2V9h9.3c2.7 0 4.1 1.3 4.1 3.9v8.8c0 1.1-.4 2-1 2.8-.7.8-1.6 1.1-2.7 1.1h-5.6c-2.7 0-4.1-1.3-4.1-3.7v-3.4c0-2.6 1.3-3.9 4-3.9h5.4v-.5zm-5.3 6.4c0 .2.1.4.3.6.2.2.4.3.7.3h3.1c.7 0 1.1-.3 1.1-.8v-1.2c0-.6-.4-1-1.1-1h-3.1c-.4 0-.7.1-.8.2-.1.2-.2.5-.2.9v1zm12.7-13.9c0-1.1.4-2 1.3-2.7.8-.7 1.8-1 3.1-1.1h2.6v4.1h-1.6c-.9 0-1.3.4-1.3 1.2V9h2.9v4.2h-2.9v12.4h-4.1v-19zm13.5 13.3v.3c0 .3.1.6.3.8.1.2.3.4.5.4h8.4v4.2h-8.9c-.8 0-1.4-.1-1.9-.2-.5-.2-.9-.4-1.3-.8s-.8-.9-.9-1.4c-.2-.5-.3-1.1-.3-1.9v-8.4c0-2.5 1.4-3.8 4-3.9h5.5c2.5 0 3.8 1.4 3.9 4v3.3l-9.3 3.6zm5.1-5.9c0-.3-.1-.5-.3-.6-.2-.1-.4-.2-.7-.2h-2.8c-.4 0-.7.1-.9.3-.3.2-.4.4-.4.8V16l5.1-2zm12.8 11.6c-.6 0-1.2-.1-1.7-.2s-1.1-.3-1.6-.8c-.6-.5-.9-1-1.2-1.6-.2-.6-.3-1.3-.3-2v-7.8c0-.6 0-1.2.2-1.7.1-.5.4-1 .9-1.4.5-.5 1-.8 1.5-1 .5-.1 1.1-.2 1.7-.2h6.3v1h-6.1c-1.1 0-1.9.2-2.5.7-.6.5-1 1.3-1 2.5v7.8c0 .6.1 1.1.3 1.6.2.5.5 1 .9 1.3.4.3.9.5 1.3.6.5.1.9.1 1.4.1h5.8v1h-5.9zm22.8-4.5c0 .6 0 1.2-.1 1.7s-.4 1-.8 1.5c-.9.9-1.9 1.3-3.2 1.3H152c-1.3 0-2.3-.4-3.1-1.1-.8-.7-1.2-1.8-1.2-3.1v-2.5c0-2.8 1.5-4.3 4.3-4.4h8.1v-1.1c0-.9-.3-1.7-.8-2.4-.3-.4-.7-.7-1.2-.9-.5-.1-1-.2-1.5-.2h-8.9v-1h8.4c.8 0 1.5.1 2.1.2.3.1.6.2.9.4.3.2.6.4.8.8.8 1 1.1 2.1 1.1 3.4v7.4zm-1-5.7h-8.2c-1 0-1.7.3-2.3.9-.6.6-.9 1.4-.9 2.4v2.5c0 .5.1.9.2 1.3s.4.8.8 1.1c.7.6 1.5.9 2.3.9h5c2.1 0 3.1-1.1 3.1-3.3v-5.8zm10.2-5.5c-2.3 0-3.4 1.3-3.4 3.7v12h-1v-12c0-3.1 1.4-4.7 4.5-4.7h1.1v1h-1.2zm17.5 11c-.1 3.2-1.8 4.7-5 4.6H179c-.8 0-1.4-.1-2.1-.2-.6-.2-1.2-.5-1.8-1.1-.4-.5-.7-1.1-.8-1.6-.1-.5-.2-1.2-.2-1.8v-7.1c0-3.2 1.7-4.8 4.9-4.8h7.7V3.5h1v17.4zm-1-11H179c-.6 0-1.1.1-1.5.2-.5.1-.9.4-1.3.9-.4.4-.7.8-.8 1.3-.1.4-.2.9-.2 1.5v7.6c0 1.3.4 2.1 1.1 2.6.4.2.8.4 1.2.5.5.1 1 .2 1.5.2h3.4c1.3 0 2.3-.3 3.1-.9.8-.5 1.2-1.5 1.2-2.8V9.9zM2 8.4c.3-.2.6-.3 1-.4.6-2.8 3-4.9 6-4.9s5.5 2.1 6.1 4.9c.9.2 1.7.5 2.3 1.1 0-.5 0-1.1-.1-1.6C16.9 3.3 13.4 0 9 0 4.5 0 .9 3.6.7 8v1.2c.4-.3.8-.6 1.3-.8"/><path class="mst0" d="M13.9 9h-10c-.5 0-1 .1-1.5.3-.5.2-.9.5-1.2.8-.6.7-.9 1.8-1 3.3v7.8c0 1.4.3 2.5 1 3.3.3.3.7.6 1.2.8.5.2 1 .3 1.5.3h10c2.6 0 3.9-1.4 3.9-4.2v-8.1c0-2.9-1.3-4.3-3.9-4.3m61 39v-8.8c.1-1 .5-1.4 1.4-1.6h3.4c1 .2 1.5.8 1.5 1.9v3.9c0 .3-.1.6-.4 1-.1.1-.1.2-.2.2-.4.3-.8.5-1.2.5h-2.6V48c0-.1-1.9 0-1.9 0m1.9-5.2c0 .3.2.4.5.4h1.6c.1 0 .2-.1.3-.2.1-.1.1-.2.1-.3v-2.8c0-.2-.1-.3-.4-.4h-1.6c-.2 0-.4.1-.5.3-.1.1-.1.2-.1.2v2.6c.1.1.1.1.1.2m5.7.7V42c0-1.1.7-1.8 1.8-1.8h2.6v-.4c0-.2-.1-.3-.4-.3h-4v-1.8h4.7c1 .1 1.4.5 1.6 1.4v4.7c-.2.9-.8 1.4-1.7 1.4h-2.6c-1.1 0-1.8-.5-1.9-1.4-.1-.1-.1-.3-.1-.3m2-.4c.1.1.2.1.3.2h1.6c.2 0 .3 0 .4-.1.1-.1.1-.2.1-.3v-.5c0-.2 0-.3-.2-.4-.1 0-.1-.1-.3-.1h-1.7c-.2 0-.3.1-.3.4v.6s0 .1.1.2m5.6 4.9v-1.9h4c.3-.1.4-.2.4-.4v-.5H92c-.8 0-1.2-.2-1.6-.9-.2-.3-.3-.6-.3-1.1v-5.6H92v5c0 .4.2.6.5.6H94c.3 0 .4-.2.5-.5v-5.2h1.9v8.7c-.1.9-.6 1.5-1.4 1.6h-4.9zm9.5-4.8v-3.8c0-1.1.4-1.6 1.3-1.8h3.8v1.9h-2.6c-.4 0-.5.1-.6.3v2.8c0 .1 0 .2.1.3.1.2.2.2.4.2h2.6V45h-3.1c-1.2.2-1.9-.5-1.9-1.8m6.2.3V42c0-1.1.7-1.8 1.8-1.8h2.6v-.4c0-.2-.1-.3-.4-.3h-4v-1.8h4.7c1 .1 1.4.5 1.6 1.4v4.7c-.2.9-.8 1.4-1.7 1.4h-2.6c-1.1 0-1.8-.5-1.9-1.4 0-.1-.1-.3-.1-.3m2.1-.4c.1.1.2.1.3.2h1.6c.2 0 .3 0 .4-.1.1-.1.1-.2.1-.3v-.5c0-.2 0-.3-.2-.4-.1 0-.1-.1-.3-.1h-1.7c-.2 0-.3.1-.3.4v.6s0 .1.1.2m5.4 2.1v-1.9h3.4c.2 0 .3-.1.4-.3v-.5c-.1-.1-.1-.2-.3-.2h-1.7c-.3 0-.6-.1-.8-.2-.7-.4-1-.8-1-1.4v-1.4c0-.1 0-.3.1-.4.2-.8.8-1.3 1.8-1.3h3.9v1.9h-3.5c-.1 0-.1 0-.2.1s-.2.2-.2.3v.1s0 .1.1.2.1.1.4.1h1.7c.5 0 .9.2 1.2.6.3.4.5.8.5 1.1v1.4c0 .3-.1.6-.3.9-.4.6-.8.8-1.5.8h-4zm7 0V34.8h1.9v2.8h2.9c.8.2 1.3.6 1.4 1.4v6.1h-1.9v-5.4c0-.2-.1-.3-.4-.3h-1.5c-.2 0-.3 0-.4.1-.1.1-.1.1-.1.2V45h-1.9zm7.3-1.2c0-.3.1-.6.3-.9.5-.5 1.2-.5 1.7 0s.5 1.2 0 1.7c-.4.5-1.2.5-1.7 0-.2-.2-.3-.5-.3-.8m7.4 4v-8.8c.1-1 .5-1.4 1.4-1.6h3.4c1 .2 1.5.8 1.5 1.9v3.9c0 .3-.1.6-.4 1-.1.1-.1.2-.2.2-.4.3-.8.5-1.2.5H137V48c-.1-.1-2 0-2 0m2-5.2c0 .3.2.4.5.4h1.6c.1 0 .2-.1.3-.2.1-.1.1-.2.1-.3v-2.8c0-.2-.1-.3-.4-.4h-1.6c-.2 0-.4.1-.5.3-.1.1-.1.2-.1.2v2.6c.1.1.1.1.1.2m5.7.7V42c0-1.1.7-1.8 1.9-1.8h2.6v-.4c0-.2-.1-.3-.4-.3h-4v-1.8h4.7c1 .1 1.4.5 1.6 1.4v4.7c-.2.9-.8 1.4-1.7 1.4h-2.6c-1.1 0-1.8-.5-1.9-1.4-.2-.1-.2-.3-.2-.3m2-.4c.1.1.2.1.3.2h1.6c.2 0 .3 0 .4-.1.1-.1.1-.2.1-.3v-.5c0-.2 0-.3-.2-.4-.1 0-.1-.1-.3-.1h-1.7c-.2 0-.3.1-.3.4v.6s0 .1.1.2m5.6 4.9v-1.9h3.9c.3-.1.4-.2.4-.4v-.5h-2.5c-.8 0-1.2-.2-1.6-.9-.2-.3-.3-.6-.3-1.1v-5.6h1.9v5c0 .4.2.6.5.6h1.5c.3 0 .4-.2.5-.5v-5.2h1.9v8.7c-.1.9-.6 1.5-1.4 1.6h-4.8zm9.4-2.8v-1.9h3.4c.2 0 .3-.1.4-.3v-.5c-.1-.1-.1-.2-.3-.2h-1.7c-.3 0-.6-.1-.8-.2-.7-.4-1-.8-1-1.4v-1.4c0-.1 0-.3.1-.4.2-.8.8-1.3 1.8-1.3h3.9v1.9H162c-.1 0-.1 0-.2.1s-.2.2-.2.3v.1s0 .1.1.2.1.1.4.1h1.7c.5 0 .9.2 1.2.6.3.4.5.8.5 1.1v1.4c0 .3-.1.6-.3.9-.4.6-.8.8-1.5.8h-4zm7-1.7V42c0-1.1.7-1.8 1.8-1.8h2.6v-.4c0-.2-.1-.3-.4-.3h-4v-1.8h4.7c1 .1 1.4.5 1.6 1.4v4.7c-.2.9-.8 1.4-1.7 1.4h-2.6c-1.1 0-1.8-.5-1.9-1.4 0-.1-.1-.3-.1-.3m2.1-.4c.1.1.2.1.3.2h1.6c.2 0 .3 0 .4-.1.1-.1.1-.2.1-.3v-.5c0-.2 0-.3-.2-.4-.1 0-.1-.1-.3-.1h-1.8c-.2 0-.3.1-.3.4v.6c.1 0 .1.1.2.2m5.6 2.1v-8.7c0-1 .8-1.7 2-1.7h1.2v1.8H176.8c-.4.1-.5.2-.5.6v.4h1.3v1.9h-1.3v5.6h-1.9zm3.8-5.8V39c.2-.9.8-1.4 1.8-1.4h2.9c.9.1 1.3.6 1.5 1.5v1.8l-4.3 1.6v.1c0 .3.1.5.4.5h4V45h-4.2c-.6 0-.9-.1-1.1-.2-.7-.4-.9-.9-.9-1.8v-3.6zm4.3.6c0-.2-.1-.3-.4-.4H180.5c-.2.1-.3.1-.4.3v1l2.4-.9zm2.9 4c0-.3.1-.6.3-.9.5-.5 1.2-.5 1.7 0s.5 1.2 0 1.7-1.2.5-1.7 0c-.2-.2-.3-.5-.3-.8"/></symbol><symbol viewBox="0 0 30 30" id="twitter" xmlns="http://www.w3.org/2000/svg"><path d="M0 0h30v30H0z"/><path d="M22.5 11.1c-.6.2-1.1.4-1.8.5.6-.4 1.1-1 1.4-1.7-.6.4-1.3.6-2 .7-.6-.6-1.4-1-2.3-1-1.7 0-3.1 1.4-3.1 3.1 0 .2 0 .5.1.7-2.6-.1-4.8-1.4-6.4-3.2-.3.5-.4 1-.4 1.6 0 1.1.5 2 1.4 2.6-.5 0-1-.2-1.4-.4 0 1.5 1.1 2.7 2.5 3-.3.1-.5.1-.8.1-.2 0-.4 0-.6-.1.4 1.2 1.5 2.1 2.9 2.1-1 .9-2.3 1.4-3.8 1.4h-.7c1.4.9 3 1.4 4.7 1.4 5.7 0 8.8-4.7 8.8-8.8v-.4c.6-.5 1.1-1 1.5-1.6"/></symbol><symbol id="visa" viewBox="0 0 130 43" xmlns="http://www.w3.org/2000/svg"><style>.ost0{fill:#fff}</style><path class="ost0" d="M52.4 1.2l-6.6 40.7h10.6L63 1.2zm-15.5 0l-10.1 28-1.2-6L22 4.8s-.4-3.7-5-3.7H.3l-.2.8h.4c.1.1.2.1.2.1.1 0 .1 0 .2.1.1 0 .2 0 .2.1.2 0 .4.1.6.2.1 0 .2.1.3.1.1 0 .3.1.4.1.1 0 .2.1.3.1.3 0 .4 0 .6.1.1 0 .2.1.3.1.2.1.4.1.6.2.1 0 .2.1.3.1.4.1.8.3 1.2.5.1.1.2.1.3.2.2.1.4.2.7.2.1.1.3.2.4.3.2.1.4.2.7.3.2.1.3.2.5.2.2.1.4.2.6.4l.6.3c.4.2.7.4 1.1.6.2.1.4.2.5.3l9.2 35.3h11l17-40.6H36.9zm84.5 0h-8.5c-3.9 0-4.9 3-4.9 3L92.2 41.9h11l2.2-6h13.5l1.2 6h9.7l-8.4-40.7zm-12.9 26.3l5.6-15.2 3.1 15.2h-8.7zm-30.3-15c0-4.6 10.3-4 14.8-1.5l1.5-8.7S89.8.5 85 .5C79.7.5 67.3 2.8 67.3 14c0 10.5 14.6 10.6 14.6 16.2s-13.1 4.5-17.5 1.1l-1.6 9.1s4.7 2.3 12 2.3c7.2 0 18.1-3.7 18.1-13.9.1-10.7-14.7-11.7-14.7-16.3z"/></symbol><symbol viewBox="0 0 255.12 89.8" id="whiteLogo" xmlns="http://www.w3.org/2000/svg"><defs><style>.pcls-1{fill:#fff}</style></defs><g id="pLayer_2" data-name="Layer 2"><path class="pcls-1" d="M215.9 43.08c-10 0-17.69 7.94-17.69 19 0 11.31 7.3 18.54 18.95 18.54 3.25 0 9.68-.58 14.63-4l-3.13-7a20.1 20.1 0 01-9.81 2.76h-.96c-.24 0-.48 0-.72-.08h-.16l-.57-.1h-.2c-.19 0-.38-.1-.56-.15l-.3-.09-.39-.15a3.25 3.25 0 01-.43-.18l-.13-.06a5.71 5.71 0 01-.65-.35 7.21 7.21 0 01-1.26-1c-.16-.15-.3-.31-.44-.47l-.16-.18a3.55 3.55 0 01-.23-.31 5.07 5.07 0 01-.36-.54 10.81 10.81 0 01-1.36-4.54h23.28v-2.8c0-10.5-7.34-18.2-17.31-18.2m-6 15.1c.42-4.78 2.88-7.23 6-7.23s5.55 2.45 6 7.23zM84.05 17.36a5.07 5.07 0 003.24-1.26v1H91V0l-3.71 1v4.51a4.15 4.15 0 00-2.36-.63c-3.59 0-5.76 2.92-5.76 6.5 0 3.17 1.72 6 4.88 6m1.63-9.91a3.28 3.28 0 011.61.45v6.23a3.31 3.31 0 01-1.73.52c-1.37 0-2.52-1.1-2.52-3.44s1.1-3.76 2.64-3.76M72.5 17.36A9 9 0 0077.36 16l-1-2.31a6.7 6.7 0 01-3.26.91h-1.24l-.14-.07-.22-.12a2.36 2.36 0 01-.42-.33 1.07 1.07 0 01-.14-.16l-.06-.06-.07-.1-.12-.18a3.74 3.74 0 01-.45-1.51h7.74v-.93a5.74 5.74 0 00-5.75-6.06c-3.32 0-5.88 2.64-5.88 6.31s2.42 6.17 6.3 6.17M72.08 7.5c1 0 1.84.82 2 2.41h-4c.14-1.59 1-2.41 2-2.41m42 12.92h3.55l6-15.26h-3.73l-2.57 7.12-3-7.12h-3.82l5 11.36zM61.66 9.37a3.89 3.89 0 012.68-1 7.16 7.16 0 01.94 0V4.88a4.35 4.35 0 00-3.81 2.46V5.16h-3.55v11.92h3.74zM247.81 66a7.31 7.31 0 107.31 7.31 7.31 7.31 0 00-7.31-7.31m0-8.27a7.31 7.31 0 10-7.31-7.31 7.31 7.31 0 007.31 7.31M110.68 10.51c0-3.48-2-5.63-4.69-5.63a4.77 4.77 0 00-3.34 1.36V0l-3.74 1v15.82a16 16 0 004.09.54c4.34 0 7.68-2.32 7.68-6.85m-8-2.24a3.56 3.56 0 011.89-.65c1 0 2.19.74 2.19 3.22 0 2.66-1.33 3.83-3 3.83a3 3 0 01-1.07-.19zM3.83 11.19h2.36c3.1 0 5.43-1.94 5.43-5.23 0-2.85-1.75-5-5.43-5H0v16.12h3.83zm0-7.43h1.94A2.09 2.09 0 017.91 6.1a2 2 0 01-2.14 2.29H3.83zm91.66 40.16l-7.72 21.41-8.87-21.41H67.4l15.15 34.14-4.73 11.74h10.69l18.14-45.88zM118.2 54c0-1.69 1.69-2.74 4.5-2.74a21.84 21.84 0 018.28 2l3.16-7.26a28.16 28.16 0 00-12-2.88c-8.36 0-15.1 3.79-15.1 11.38 0 11.94 16.85 9.76 16.85 15 0 2-2 3-5.26 3a20.84 20.84 0 01-9.13-2.39l-3.58 7.24a29.55 29.55 0 0013.69 3.3c8.14 0 15.16-4.21 15.16-11.94 0-11.8-16.57-9.84-16.57-14.61M18.6 31.27H0v48.48h11.51V62h7.09C27.94 62 35 56.22 35 46.31c0-8.57-5.27-15-16.36-15m-1.3 22.3h-5.83v-13.9h5.83c4.14 0 6.45 2.87 6.45 7 0 4.43-2.59 6.88-6.45 6.88m36-10.53a30.19 30.19 0 00-15.8 4.28l3.09 6.4c2-.92 6.32-2.53 10-2.53 2.6 0 4.91.91 4.91 3.65v2.39C40 56.17 35.55 63 35.55 69.28c0 6.15 5.21 11.31 12.05 11.31a15.53 15.53 0 007.88-2.43v1.59h11.23V54.81c0-8.08-5.12-11.73-13.4-11.73m2.59 28.8a7.72 7.72 0 01-4.42 1.41c-2.81 0-4.7-1.62-4.7-4.22 0-2.95 2.32-5.84 9.12-4.71zm-23.55-54.8l2.22-7.85c.44 1.45 1.89 6.42 2.33 7.85h3.48l3.48-11.92h-3.34l-2 7.83c-.4-1.45-1.61-6.38-2-7.83h-3.68l-2.05 7.78c-.37-1.42-1.47-6.35-1.84-7.78h-3.58l3.48 11.92zm18.28.28A9 9 0 0055.5 16l-1-2.31a6.71 6.71 0 01-3.27.91h-1.28l-.14-.07h-.05l-.21-.12a3.39 3.39 0 01-.42-.33l-.15-.16v-.06l-.08-.1-.12-.18a3.59 3.59 0 01-.45-1.51H56v-.93a5.74 5.74 0 00-5.76-6.06c-3.31 0-5.88 2.64-5.88 6.31s2.43 6.17 6.3 6.17M50.21 7.5c1 0 1.85.82 2 2.41h-4c.14-1.59 1-2.41 2-2.41m128.24 34.94v1.48h-6v7.66h6v28.17h11.16V51.58h7.72v-7.66h-7.72V42c0-3.16 1.27-5.41 4.71-5.41a12 12 0 013.29.5v-8a19.6 19.6 0 00-5.33-.71c-9.06 0-13.83 5.55-13.83 14M18.66 17.36c3.67 0 6.31-2.29 6.31-6.24s-2.64-6.24-6.31-6.24-6.28 2.32-6.28 6.24 2.62 6.24 6.28 6.24m0-9.74c1.61 0 2.31 1.47 2.31 3.52s-.65 3.51-2.31 3.51-2.31-1.54-2.31-3.51.73-3.52 2.31-3.52m137.2 35.46a30.15 30.15 0 00-15.79 4.28l3.09 6.4c2-.92 6.31-2.53 10-2.53 2.6 0 4.92.91 4.92 3.65v2.39c-15.48-1.1-19.93 5.71-19.93 12 0 6.15 5.2 11.31 12 11.31a15.59 15.59 0 007.85-2.42v1.59h11.23V54.81c0-8.08-5.13-11.73-13.41-11.73m2.18 28.8a7.76 7.76 0 01-4.43 1.41c-2.8 0-4.7-1.62-4.7-4.22 0-2.95 2.32-5.84 9.13-4.71z" id="pLayer_1-2" data-name="Layer 1"/></g></symbol><symbol viewBox="0 0 30 30" id="youtube" xmlns="http://www.w3.org/2000/svg"><path d="M0 0h30v30H0z"/><path d="M17.9 15L13 17.9v-5.8l4.9 2.9zm4.6 2.7v-5.4s0-2.6-2.6-2.6h-9.8s-2.6 0-2.6 2.6v5.4s0 2.6 2.6 2.6h9.8s2.6 0 2.6-2.6"/></symbol></svg>